# xmcd CD database file
#
# Track frame offsets:
#	150
#	21048
#	38905
#	57083
#	75773
#	96425
#	117130
#	142510
#	161063
#	182593
#	198540
#	215718
#
# Disc length: 3103 seconds
#
# Revision: 2
# Processed by: cddbd v1.5PL3 Copyright (c) Steve Scherf et al.
# Submitted via: CDex 1.51
#
DISCID=960c1d0c
DTITLE=Rob Zombie - American Made Music To Strip By
DYEAR=1999
DGENRE=Metal
TTITLE0=Dragula (Charlie Clouser Si Non Oscillas Noli Tintinnare Mix)
TTITLE1=Superbeast (Praga Khan and Oliver Adams Porno Holocaust Mix)
TTITLE2=How To Make A Monster (God Lives Underwater Kitty's Purrformance Mix)
TTITLE3=Living Dead Girl (Charlie Clouser Subliminal Seduction Mix)
TTITLE4=Spookshow Baby (Rammstein Black Leather Cat Suit Mix)
TTITLE5=Demonoid Phenomenon (Poly 915 Sin Lives Mix)
TTITLE6=The Ballad Of Resurrection Joe (Phillip Steir Ilsa She-Wolf Of Hollywood Mix)
TTITLE7=What Lurks On Channel X? (Spacetruckers Xxx Mix)
TTITLE8=Meet The Creeper (Steve Duda Pink Pussy Mix)
TTITLE9=Return Of The Phantom Stranger (Chris Vrenna Tuesday Night At The Chop Shop Mix)
TTITLE10=Superbeast (Charlie Clouser Girl On A Motorcycle Mix)
TTITLE11=Meet The Creeper (DJ Lethal Brute Man and Wonder Girl Mix)
EXTD=Submitted by NeoRenegade YEAR: 1999
EXTT0=
EXTT1=
EXTT2=
EXTT3=
EXTT4=
EXTT5=
EXTT6=
EXTT7=
EXTT8=
EXTT9=
EXTT10=
EXTT11=
PLAYORDER=
